<svg xmlns="http://www.w3.org/2000/svg" xmlns:xlink="http://www.w3.org/1999/xlink" width="500" zoomAndPan="magnify" viewBox="0 0 375 374.999991" height="500" preserveAspectRatio="xMidYMid meet" version="1.0"><defs><g/><clipPath id="256be38cc4"><path d="M 246 170 L 254.433594 170 L 254.433594 185 L 246 185 Z M 246 170 " clip-rule="nonzero"/></clipPath><clipPath id="a97c53a5d7"><path d="M 129 47 L 237 47 L 237 206.984375 L 129 206.984375 Z M 129 47 " clip-rule="nonzero"/></clipPath><clipPath id="bbeb4e977a"><rect x="0" width="358" y="0" height="85"/></clipPath><clipPath id="f04b06f681"><rect x="0" width="217" y="0" height="28"/></clipPath></defs><path fill="#f6c100" d="M 207.597656 39.644531 C 207.074219 41.898438 212.621094 42.867188 214.332031 41.308594 C 220.886719 35.328125 228.730469 28.359375 229.648438 19.53125 C 230.144531 14.777344 220.417969 8.445312 217.367188 12.125 C 211.195312 19.570312 209.625 30.851562 207.597656 39.644531 M 174.710938 38.859375 C 172.519531 28.457031 177.660156 17.058594 173.6875 8.765625 C 171.636719 4.484375 156.765625 6.453125 157.121094 11.191406 C 157.894531 21.496094 163.140625 31.496094 166.816406 39.65625 C 167.90625 42.066406 175.257812 41.445312 174.710938 38.859375 Z M 134.28125 59.144531 C 126.730469 51.300781 123.492188 40.910156 117.003906 37.691406 C 111.925781 35.175781 102.886719 44.328125 104.902344 49.621094 C 108.160156 58.179688 118.785156 62.421875 127.496094 65.246094 C 130.386719 66.183594 136.386719 61.335938 134.28125 59.144531 Z M 117.003906 99.226562 C 108.644531 97.496094 98.90625 96.441406 91.425781 100.554688 C 87.929688 102.476562 89.019531 111.988281 92.984375 112.421875 C 101.117188 113.316406 110.058594 109.089844 117.941406 106.042969 C 120.078125 105.21875 119.246094 99.691406 117.003906 99.226562 Z M 128.8125 138.496094 C 122.535156 142.039062 114.207031 143.132812 109.9375 147.3125 C 107.195312 149.992188 112.824219 158.140625 116.421875 156.8125 C 122.6875 154.496094 127.679688 147.566406 132.46875 143.214844 C 133.941406 141.878906 130.546875 137.519531 128.8125 138.496094 Z M 128.8125 138.496094 " fill-opacity="1" fill-rule="evenodd"/><g clip-path="url(#256be38cc4)"><path fill="#e77813" d="M 247.863281 184.632812 C 251.730469 181.453125 254.441406 178.730469 254.433594 177.265625 C 254.429688 175.785156 251.195312 173.195312 246.515625 170.285156 C 246.636719 170.777344 246.753906 171.269531 246.859375 171.769531 C 247.636719 175.445312 247.925781 179.277344 247.925781 182.96875 L 247.925781 182.984375 C 247.925781 183.539062 247.898438 184.085938 247.863281 184.632812 " fill-opacity="1" fill-rule="evenodd"/></g><path fill="#1f1a17" d="M 221.566406 156.972656 C 226.101562 160.367188 224.621094 166.59375 222.308594 171.152344 C 226.316406 177.089844 226.199219 183.003906 222.503906 187.890625 C 226.132812 194.28125 225.152344 197.125 223.773438 200.730469 C 227.394531 197.980469 235.964844 193.757812 243.601562 187.976562 C 243.894531 186.320312 244.128906 184.644531 244.132812 182.984375 L 244.132812 182.96875 C 244.132812 179.496094 243.867188 175.925781 243.152344 172.550781 C 242.773438 170.777344 242.273438 169.046875 241.625 167.417969 C 234.617188 163.496094 227.742188 159.457031 221.566406 156.972656 " fill-opacity="1" fill-rule="evenodd"/><g clip-path="url(#a97c53a5d7)"><path fill="#e77813" d="M 170.167969 188.230469 C 167.023438 188.078125 164.597656 185.402344 164.742188 182.261719 C 164.890625 179.113281 167.558594 176.6875 170.703125 176.839844 C 186.582031 177.605469 198.625 176.140625 210.644531 174.679688 L 210.644531 174.675781 C 211.324219 174.589844 211.230469 174.605469 213.039062 174.386719 C 216.152344 174.011719 218.980469 176.234375 219.351562 179.355469 C 219.714844 182.472656 217.488281 185.3125 214.371094 185.691406 C 214.144531 185.714844 214.28125 185.699219 212.023438 185.976562 L 212 185.976562 C 199.441406 187.503906 186.863281 189.039062 170.167969 188.230469 M 175.523438 206.96875 C 172.378906 206.976562 169.828125 204.433594 169.828125 201.289062 C 169.828125 198.140625 172.378906 195.582031 175.523438 195.570312 C 176.113281 195.570312 176.773438 195.5625 177.480469 195.550781 C 178.96875 195.527344 180.65625 195.46875 182.507812 195.378906 C 184.015625 195.308594 185.789062 195.191406 187.8125 195.035156 C 196.527344 194.367188 205.484375 193.113281 211.734375 191.386719 C 214.753906 190.554688 217.882812 192.328125 218.71875 195.347656 C 219.550781 198.371094 217.777344 201.5 214.757812 202.332031 C 207.550781 204.324219 197.832031 205.722656 188.65625 206.429688 C 186.984375 206.554688 185.097656 206.671875 183.039062 206.769531 C 181.320312 206.855469 179.515625 206.914062 177.660156 206.945312 C 176.980469 206.957031 176.265625 206.964844 175.523438 206.96875 Z M 236.867188 86.570312 C 238.03125 93.921875 226.761719 95.734375 225.59375 88.375 C 221.054688 66.4375 201.386719 57.601562 182.386719 59.160156 C 164.546875 60.621094 145.90625 73.058594 141.449219 90.527344 C 139.117188 99.671875 141.09375 110.128906 146.058594 118.085938 C 150.703125 125.535156 157.371094 129.957031 163.863281 137.003906 C 164.945312 138.179688 165.964844 139.46875 166.90625 140.839844 C 169.808594 145.054688 171.851562 149.984375 172.777344 154.902344 C 173.335938 157.902344 174.054688 158.6875 175.632812 158.832031 C 187.070312 159.878906 201.042969 159.226562 212.234375 156.863281 C 215.308594 156.214844 218.320312 158.191406 218.960938 161.265625 C 219.601562 164.34375 217.628906 167.367188 214.550781 168.015625 C 207.253906 169.554688 193.503906 170.519531 180.882812 170.160156 C 178.210938 170.085938 175.757812 169.96875 173.609375 169.808594 C 169.441406 169.496094 160.90625 169.625 161.828125 162.679688 C 162.46875 157.855469 160.785156 152.019531 157.546875 147.304688 C 150.265625 136.710938 140.914062 132.488281 134.769531 121.207031 C 129.777344 112.046875 127.832031 100.402344 129.832031 90.15625 C 134.570312 65.953125 159.609375 48.746094 184.324219 47.710938 C 208.351562 46.703125 232.292969 59.203125 236.867188 86.570312 Z M 236.867188 86.570312 " fill-opacity="1" fill-rule="evenodd"/></g><g transform="matrix(1, 0, 0, 1, 17, 235)"><g clip-path="url(#bbeb4e977a)"><g fill="#1f1a17" fill-opacity="1"><g transform="translate(0.306428, 63.912179)"><g><path d="M 39.4375 -51.203125 C 40.925781 -50.785156 42.085938 -50.03125 42.921875 -48.9375 C 43.753906 -47.84375 44.101562 -46.625 43.96875 -45.28125 C 43.820312 -43.894531 43.25 -42.722656 42.25 -41.765625 C 41.257812 -40.816406 40 -40.296875 38.46875 -40.203125 C 37.726562 -40.160156 36.984375 -40.140625 36.234375 -40.140625 C 35.492188 -40.140625 34.753906 -40.140625 34.015625 -40.140625 C 33.640625 -40.140625 33.28125 -40.140625 32.9375 -40.140625 C 32.59375 -40.140625 32.234375 -40.140625 31.859375 -40.140625 L 25.453125 -40.140625 L 25.59375 -39.296875 C 25.6875 -38.421875 25.800781 -37.566406 25.9375 -36.734375 C 26.082031 -35.898438 26.203125 -35.0625 26.296875 -34.21875 C 26.578125 -32.363281 26.832031 -30.539062 27.0625 -28.75 C 27.289062 -26.96875 27.5 -25.195312 27.6875 -23.4375 C 27.914062 -21.488281 28.132812 -19.410156 28.34375 -17.203125 C 28.550781 -15.003906 28.703125 -12.75 28.796875 -10.4375 C 28.847656 -8.769531 28.523438 -7.003906 27.828125 -5.140625 C 26.898438 -2.828125 25.160156 -1.644531 22.609375 -1.59375 C 20.015625 -1.644531 18.273438 -2.804688 17.390625 -5.078125 C 16.554688 -7.304688 16.140625 -9.507812 16.140625 -11.6875 C 16.140625 -14.75 16.160156 -17.796875 16.203125 -20.828125 C 16.253906 -23.867188 16.328125 -26.894531 16.421875 -29.90625 C 16.421875 -31.113281 16.429688 -32.320312 16.453125 -33.53125 C 16.472656 -34.738281 16.507812 -35.96875 16.5625 -37.21875 C 16.5625 -37.40625 16.535156 -37.726562 16.484375 -38.1875 L 16.421875 -39.375 L 14.125 -39.578125 C 13.332031 -39.671875 12.539062 -39.75 11.75 -39.8125 C 10.96875 -39.882812 10.179688 -39.96875 9.390625 -40.0625 C 8.972656 -40.113281 8.585938 -40.160156 8.234375 -40.203125 C 7.890625 -40.253906 7.535156 -40.328125 7.171875 -40.421875 C 4.203125 -41.109375 2.671875 -42.632812 2.578125 -45 C 2.484375 -47.457031 3.96875 -49.128906 7.03125 -50.015625 L 7.234375 -50.015625 C 7.367188 -50.109375 7.460938 -50.15625 7.515625 -50.15625 C 8.992188 -50.25 10.472656 -50.363281 11.953125 -50.5 C 13.441406 -50.644531 14.90625 -50.804688 16.34375 -50.984375 C 18.707031 -51.222656 21.082031 -51.457031 23.46875 -51.6875 C 25.863281 -51.914062 28.242188 -52.03125 30.609375 -52.03125 C 31.816406 -52.03125 33.007812 -51.992188 34.1875 -51.921875 C 35.375 -51.859375 36.566406 -51.734375 37.765625 -51.546875 C 38.367188 -51.453125 38.925781 -51.335938 39.4375 -51.203125 Z M 39.4375 -51.203125 "/></g></g></g><g fill="#1f1a17" fill-opacity="1"><g transform="translate(53.866183, 63.912179)"><g><path d="M 53.21875 -11.40625 C 53.257812 -11.082031 53.328125 -10.78125 53.421875 -10.5 C 53.378906 -8.789062 53 -7.351562 52.28125 -6.1875 C 51.5625 -5.03125 50.550781 -4.265625 49.25 -3.890625 C 47.945312 -3.472656 46.691406 -3.519531 45.484375 -4.03125 C 44.285156 -4.539062 43.316406 -5.398438 42.578125 -6.609375 C 41.785156 -7.953125 41.113281 -9.617188 40.5625 -11.609375 C 40.375 -12.359375 40.046875 -13.03125 39.578125 -13.625 C 39.117188 -14.226562 38.285156 -14.554688 37.078125 -14.609375 C 35.734375 -14.648438 34.390625 -14.691406 33.046875 -14.734375 C 31.703125 -14.785156 30.351562 -14.835938 29 -14.890625 C 27.238281 -14.984375 25.453125 -15.0625 23.640625 -15.125 C 21.835938 -15.195312 20.03125 -15.253906 18.21875 -15.296875 C 17.757812 -15.296875 17.25 -15.097656 16.6875 -14.703125 C 16.132812 -14.316406 15.71875 -13.914062 15.4375 -13.5 C 15.070312 -12.84375 14.710938 -12.175781 14.359375 -11.5 C 14.015625 -10.832031 13.679688 -10.175781 13.359375 -9.53125 C 13.035156 -8.882812 12.695312 -8.210938 12.34375 -7.515625 C 12 -6.816406 11.617188 -6.144531 11.203125 -5.5 C 9.578125 -2.664062 7.601562 -1.757812 5.28125 -2.78125 C 4.351562 -3.15625 3.597656 -3.894531 3.015625 -5 C 2.441406 -6.113281 2.390625 -7.414062 2.859375 -8.90625 C 4.472656 -13.957031 6.554688 -19.679688 9.109375 -26.078125 C 10.734375 -30.160156 12.773438 -34.753906 15.234375 -39.859375 C 15.929688 -41.296875 16.707031 -42.8125 17.5625 -44.40625 C 18.414062 -46.007812 19.351562 -47.578125 20.375 -49.109375 C 21.445312 -50.640625 23.003906 -51.984375 25.046875 -53.140625 C 26.578125 -54.066406 28.035156 -54.53125 29.421875 -54.53125 C 31.878906 -54.53125 33.921875 -53.164062 35.546875 -50.4375 C 38.742188 -44.957031 41.875 -39.257812 44.9375 -33.34375 C 48 -27.4375 50.476562 -21.210938 52.375 -14.671875 C 52.5625 -14.066406 52.722656 -13.488281 52.859375 -12.9375 C 53.003906 -12.382812 53.125 -11.875 53.21875 -11.40625 Z M 22.328125 -27.0625 L 35.34375 -27.0625 L 27.890625 -42.296875 Z M 22.328125 -27.0625 "/></g></g></g><g fill="#1f1a17" fill-opacity="1"><g transform="translate(116.815773, 63.912179)"><g><path d="M 33.390625 -10.21875 C 33.992188 -8.695312 33.738281 -7.125 32.625 -5.5 C 32.53125 -5.351562 32.425781 -5.210938 32.3125 -5.078125 C 32.195312 -4.941406 32.09375 -4.828125 32 -4.734375 C 24.71875 0.554688 17.757812 2.066406 11.125 -0.203125 C 9.226562 -0.859375 7.695312 -1.753906 6.53125 -2.890625 C 5.375 -4.023438 4.503906 -5.265625 3.921875 -6.609375 C 3.347656 -7.953125 2.976562 -9.269531 2.8125 -10.5625 C 2.65625 -11.863281 2.578125 -13.023438 2.578125 -14.046875 C 2.710938 -18.359375 2.953125 -22.707031 3.296875 -27.09375 C 3.648438 -31.476562 4.035156 -35.78125 4.453125 -40 L 4.65625 -42.359375 C 4.800781 -43.941406 5.046875 -45.519531 5.390625 -47.09375 C 5.734375 -48.664062 6.160156 -50.359375 6.671875 -52.171875 C 7.367188 -54.859375 8.785156 -56.203125 10.921875 -56.203125 C 11.054688 -56.203125 11.171875 -56.203125 11.265625 -56.203125 C 12.429688 -56.109375 13.375 -55.644531 14.09375 -54.8125 C 14.8125 -53.976562 15.210938 -52.890625 15.296875 -51.546875 C 15.484375 -49.273438 15.613281 -47 15.6875 -44.71875 C 15.757812 -42.445312 15.84375 -40.296875 15.9375 -38.265625 C 15.9375 -37.421875 15.945312 -36.628906 15.96875 -35.890625 C 15.988281 -35.148438 16.019531 -34.429688 16.0625 -33.734375 C 16.0625 -32.710938 16.0625 -31.710938 16.0625 -30.734375 C 16.0625 -29.765625 16.0625 -28.816406 16.0625 -27.890625 C 16.0625 -25.804688 16.0625 -23.773438 16.0625 -21.796875 C 16.0625 -19.828125 16.0625 -17.894531 16.0625 -16 C 16.113281 -15.207031 16.1875 -14.554688 16.28125 -14.046875 C 16.375 -13.535156 16.601562 -13.144531 16.96875 -12.875 C 17.34375 -12.5 17.816406 -12.300781 18.390625 -12.28125 C 18.972656 -12.257812 19.613281 -12.289062 20.3125 -12.375 C 20.820312 -12.425781 21.316406 -12.484375 21.796875 -12.546875 C 22.285156 -12.617188 22.785156 -12.679688 23.296875 -12.734375 C 23.804688 -12.828125 24.328125 -12.90625 24.859375 -12.96875 C 25.398438 -13.039062 25.925781 -13.097656 26.4375 -13.140625 C 27.78125 -13.234375 28.914062 -13.191406 29.84375 -13.015625 C 31.65625 -12.585938 32.835938 -11.65625 33.390625 -10.21875 Z M 33.390625 -10.21875 "/></g></g></g><g fill="#1f1a17" fill-opacity="1"><g transform="translate(160.01192, 63.912179)"><g><path d="M 48 -6.328125 C 48.09375 -4.378906 47.953125 -2.640625 47.578125 -1.109375 C 47.066406 1.023438 45.722656 2.226562 43.546875 2.5 C 41.367188 2.78125 39.769531 1.945312 38.75 0 C 37.820312 -1.757812 37.285156 -3.472656 37.140625 -5.140625 C 37.003906 -6.859375 36.898438 -8.597656 36.828125 -10.359375 C 36.765625 -12.128906 36.707031 -13.867188 36.65625 -15.578125 C 36.65625 -16.179688 36.644531 -16.796875 36.625 -17.421875 C 36.601562 -18.046875 36.566406 -18.6875 36.515625 -19.34375 C 36.515625 -19.613281 36.515625 -19.910156 36.515625 -20.234375 C 36.515625 -20.566406 36.515625 -20.867188 36.515625 -21.140625 L 36.515625 -22.8125 L 12.796875 -22.8125 L 12.796875 -21.078125 C 12.796875 -20.753906 12.796875 -20.453125 12.796875 -20.171875 C 12.796875 -19.890625 12.796875 -19.613281 12.796875 -19.34375 L 12.796875 -14.46875 C 12.847656 -13.070312 12.875 -11.664062 12.875 -10.25 C 12.875 -8.84375 12.875 -7.421875 12.875 -5.984375 L 12.875 -5.78125 C 12.914062 -5.3125 12.925781 -4.851562 12.90625 -4.40625 C 12.882812 -3.96875 12.847656 -3.519531 12.796875 -3.0625 C 12.660156 -1.625 12.234375 -0.476562 11.515625 0.375 C 10.796875 1.238281 9.878906 1.671875 8.765625 1.671875 C 8.765625 1.671875 8.75 1.671875 8.71875 1.671875 C 8.695312 1.671875 8.6875 1.671875 8.6875 1.671875 C 7.53125 1.671875 6.566406 1.253906 5.796875 0.421875 C 5.035156 -0.410156 4.609375 -1.503906 4.515625 -2.859375 C 4.097656 -9.859375 3.726562 -16.289062 3.40625 -22.15625 C 3.082031 -28.019531 2.804688 -33.597656 2.578125 -38.890625 C 2.523438 -40.179688 2.613281 -41.507812 2.84375 -42.875 C 3.082031 -44.25 3.316406 -45.515625 3.546875 -46.671875 C 3.773438 -47.878906 4.285156 -48.832031 5.078125 -49.53125 C 5.867188 -50.226562 6.796875 -50.53125 7.859375 -50.4375 C 8.878906 -50.382812 9.722656 -50 10.390625 -49.28125 C 11.066406 -48.5625 11.5 -47.578125 11.6875 -46.328125 C 11.820312 -45.078125 11.9375 -43.789062 12.03125 -42.46875 C 12.125 -41.144531 12.21875 -39.832031 12.3125 -38.53125 C 12.351562 -37.976562 12.382812 -37.421875 12.40625 -36.859375 C 12.4375 -36.304688 12.472656 -35.753906 12.515625 -35.203125 L 12.734375 -32.203125 L 36.453125 -32.203125 L 36.59375 -35.890625 C 36.6875 -37.003906 36.753906 -38.082031 36.796875 -39.125 C 36.847656 -40.164062 36.914062 -41.222656 37 -42.296875 C 37.050781 -43.222656 37.109375 -44.179688 37.171875 -45.171875 C 37.242188 -46.171875 37.351562 -47.179688 37.5 -48.203125 C 37.675781 -49.179688 38 -50.109375 38.46875 -50.984375 C 38.75 -51.492188 39.164062 -51.96875 39.71875 -52.40625 C 40.28125 -52.851562 41.066406 -53.03125 42.078125 -52.9375 C 43.660156 -52.75 44.632812 -51.914062 45 -50.4375 C 45.46875 -48.675781 45.75 -46.75 45.84375 -44.65625 C 46.257812 -37.695312 46.648438 -31.050781 47.015625 -24.71875 C 47.390625 -18.394531 47.71875 -12.265625 48 -6.328125 Z M 48 -6.328125 "/></g></g></g><g fill="#1f1a17" fill-opacity="1"><g transform="translate(217.536283, 63.912179)"><g><path d="M 53.21875 -11.40625 C 53.257812 -11.082031 53.328125 -10.78125 53.421875 -10.5 C 53.378906 -8.789062 53 -7.351562 52.28125 -6.1875 C 51.5625 -5.03125 50.550781 -4.265625 49.25 -3.890625 C 47.945312 -3.472656 46.691406 -3.519531 45.484375 -4.03125 C 44.285156 -4.539062 43.316406 -5.398438 42.578125 -6.609375 C 41.785156 -7.953125 41.113281 -9.617188 40.5625 -11.609375 C 40.375 -12.359375 40.046875 -13.03125 39.578125 -13.625 C 39.117188 -14.226562 38.285156 -14.554688 37.078125 -14.609375 C 35.734375 -14.648438 34.390625 -14.691406 33.046875 -14.734375 C 31.703125 -14.785156 30.351562 -14.835938 29 -14.890625 C 27.238281 -14.984375 25.453125 -15.0625 23.640625 -15.125 C 21.835938 -15.195312 20.03125 -15.253906 18.21875 -15.296875 C 17.757812 -15.296875 17.25 -15.097656 16.6875 -14.703125 C 16.132812 -14.316406 15.71875 -13.914062 15.4375 -13.5 C 15.070312 -12.84375 14.710938 -12.175781 14.359375 -11.5 C 14.015625 -10.832031 13.679688 -10.175781 13.359375 -9.53125 C 13.035156 -8.882812 12.695312 -8.210938 12.34375 -7.515625 C 12 -6.816406 11.617188 -6.144531 11.203125 -5.5 C 9.578125 -2.664062 7.601562 -1.757812 5.28125 -2.78125 C 4.351562 -3.15625 3.597656 -3.894531 3.015625 -5 C 2.441406 -6.113281 2.390625 -7.414062 2.859375 -8.90625 C 4.472656 -13.957031 6.554688 -19.679688 9.109375 -26.078125 C 10.734375 -30.160156 12.773438 -34.753906 15.234375 -39.859375 C 15.929688 -41.296875 16.707031 -42.8125 17.5625 -44.40625 C 18.414062 -46.007812 19.351562 -47.578125 20.375 -49.109375 C 21.445312 -50.640625 23.003906 -51.984375 25.046875 -53.140625 C 26.578125 -54.066406 28.035156 -54.53125 29.421875 -54.53125 C 31.878906 -54.53125 33.921875 -53.164062 35.546875 -50.4375 C 38.742188 -44.957031 41.875 -39.257812 44.9375 -33.34375 C 48 -27.4375 50.476562 -21.210938 52.375 -14.671875 C 52.5625 -14.066406 52.722656 -13.488281 52.859375 -12.9375 C 53.003906 -12.382812 53.125 -11.875 53.21875 -11.40625 Z M 22.328125 -27.0625 L 35.34375 -27.0625 L 27.890625 -42.296875 Z M 22.328125 -27.0625 "/></g></g></g><g fill="#1f1a17" fill-opacity="1"><g transform="translate(280.485873, 63.912179)"><g><path d="M 15.796875 -50.71875 L 16.265625 -49.96875 C 15.140625 -45.5 13.148438 -40.070312 10.296875 -33.6875 L 5.640625 -33.6875 C 7.222656 -40.550781 8.351562 -46.226562 9.03125 -50.71875 Z M 15.390625 -43.265625 Z M 15.21875 -62.359375 Z M 15.21875 -62.359375 "/></g></g></g><g fill="#1f1a17" fill-opacity="1"><g transform="translate(309.112039, 63.912179)"><g><path d="M 37.28125 -16.765625 C 38.113281 -13.472656 37.859375 -10.523438 36.515625 -7.921875 C 35.171875 -5.328125 32.96875 -3.519531 29.90625 -2.5 C 26.476562 -1.300781 22.351562 -0.609375 17.53125 -0.421875 C 15.351562 -0.328125 13.414062 -0.820312 11.71875 -1.90625 C 10.03125 -3 8.675781 -4.101562 7.65625 -5.21875 C 6.539062 -6.46875 5.851562 -7.8125 5.59375 -9.25 C 5.34375 -10.6875 5.566406 -11.984375 6.265625 -13.140625 C 7.378906 -15.085938 9.207031 -16.0625 11.75 -16.0625 C 12.445312 -16.0625 13.144531 -15.992188 13.84375 -15.859375 C 14.125 -15.765625 14.425781 -15.679688 14.75 -15.609375 C 15.070312 -15.546875 15.375 -15.46875 15.65625 -15.375 C 16.90625 -15 18.175781 -14.695312 19.46875 -14.46875 C 20.769531 -14.238281 22.140625 -14.332031 23.578125 -14.75 L 25.875 -15.4375 L 25.53125 -16.203125 C 24.925781 -17.640625 24.066406 -18.691406 22.953125 -19.359375 C 21.835938 -20.035156 20.679688 -20.5625 19.484375 -20.9375 C 14.703125 -22.375 10.382812 -25.039062 6.53125 -28.9375 C 3.707031 -31.8125 2.390625 -35.035156 2.578125 -38.609375 C 2.765625 -42.128906 4.363281 -45.117188 7.375 -47.578125 C 13.125 -52.304688 19.640625 -53.816406 26.921875 -52.109375 C 30.171875 -51.359375 32.582031 -49.707031 34.15625 -47.15625 C 34.757812 -46.09375 35.109375 -44.9375 35.203125 -43.6875 C 35.203125 -43.3125 35.15625 -42.890625 35.0625 -42.421875 C 34.96875 -41.960938 34.757812 -41.617188 34.4375 -41.390625 C 33.875 -40.972656 33.015625 -40.992188 31.859375 -41.453125 C 30.460938 -42.015625 28.769531 -42.535156 26.78125 -43.015625 C 24.789062 -43.503906 22.679688 -43.492188 20.453125 -42.984375 C 19.378906 -42.753906 18.34375 -42.40625 17.34375 -41.9375 C 16.351562 -41.476562 15.441406 -40.992188 14.609375 -40.484375 C 13.628906 -39.929688 13.140625 -39.210938 13.140625 -38.328125 C 13.140625 -37.441406 13.601562 -36.703125 14.53125 -36.109375 L 16.0625 -35.203125 C 17.320312 -34.453125 18.585938 -33.71875 19.859375 -33 C 21.128906 -32.28125 22.441406 -31.644531 23.796875 -31.09375 C 31.210938 -28.125 35.707031 -23.347656 37.28125 -16.765625 Z M 37.28125 -16.765625 "/></g></g></g></g></g><g transform="matrix(1, 0, 0, 1, 92, 324)"><g clip-path="url(#f04b06f681)"><g fill="#e77813" fill-opacity="1"><g transform="translate(1.117689, 22.247874)"><g><path d="M 8.875 0.265625 C 7.375 0.265625 6.054688 0 4.921875 -0.53125 C 3.796875 -1.070312 2.914062 -1.832031 2.28125 -2.8125 C 1.65625 -3.789062 1.34375 -4.953125 1.34375 -6.296875 L 3.9375 -6.296875 C 3.9375 -5.015625 4.398438 -4.019531 5.328125 -3.3125 C 6.265625 -2.601562 7.4375 -2.25 8.84375 -2.25 C 9.695312 -2.25 10.472656 -2.390625 11.171875 -2.671875 C 11.867188 -2.953125 12.421875 -3.359375 12.828125 -3.890625 C 13.242188 -4.429688 13.453125 -5.0625 13.453125 -5.78125 C 13.453125 -6.570312 13.210938 -7.1875 12.734375 -7.625 C 12.253906 -8.0625 11.625 -8.40625 10.84375 -8.65625 C 10.070312 -8.914062 9.25 -9.140625 8.375 -9.328125 C 7.570312 -9.523438 6.78125 -9.738281 6 -9.96875 C 5.226562 -10.207031 4.515625 -10.523438 3.859375 -10.921875 C 3.210938 -11.316406 2.691406 -11.84375 2.296875 -12.5 C 1.910156 -13.15625 1.71875 -13.988281 1.71875 -15 C 1.71875 -16.769531 2.347656 -18.160156 3.609375 -19.171875 C 4.878906 -20.179688 6.566406 -20.6875 8.671875 -20.6875 C 10.785156 -20.6875 12.445312 -20.140625 13.65625 -19.046875 C 14.875 -17.960938 15.484375 -16.492188 15.484375 -14.640625 L 12.953125 -14.640625 C 12.953125 -15.773438 12.539062 -16.65625 11.71875 -17.28125 C 10.90625 -17.914062 9.878906 -18.234375 8.640625 -18.234375 C 7.390625 -18.234375 6.347656 -17.953125 5.515625 -17.390625 C 4.691406 -16.835938 4.28125 -16.078125 4.28125 -15.109375 C 4.28125 -14.347656 4.515625 -13.757812 4.984375 -13.34375 C 5.453125 -12.925781 6.0625 -12.59375 6.8125 -12.34375 C 7.5625 -12.101562 8.375 -11.890625 9.25 -11.703125 C 10.039062 -11.503906 10.835938 -11.273438 11.640625 -11.015625 C 12.453125 -10.765625 13.191406 -10.4375 13.859375 -10.03125 C 14.535156 -9.625 15.070312 -9.078125 15.46875 -8.390625 C 15.875 -7.710938 16.078125 -6.851562 16.078125 -5.8125 C 16.078125 -4.519531 15.757812 -3.421875 15.125 -2.515625 C 14.488281 -1.617188 13.625 -0.929688 12.53125 -0.453125 C 11.445312 0.0234375 10.226562 0.265625 8.875 0.265625 Z M 8.875 0.265625 "/></g></g></g><g fill="#e77813" fill-opacity="1"><g transform="translate(33.115565, 22.247874)"><g><path d="M 11.875 0.328125 C 10.351562 0.328125 8.957031 0.0703125 7.6875 -0.4375 C 6.414062 -0.957031 5.304688 -1.691406 4.359375 -2.640625 C 3.421875 -3.585938 2.691406 -4.703125 2.171875 -5.984375 C 1.660156 -7.265625 1.40625 -8.671875 1.40625 -10.203125 C 1.40625 -11.742188 1.660156 -13.15625 2.171875 -14.4375 C 2.691406 -15.71875 3.421875 -16.828125 4.359375 -17.765625 C 5.304688 -18.710938 6.414062 -19.441406 7.6875 -19.953125 C 8.957031 -20.472656 10.351562 -20.734375 11.875 -20.734375 C 13.445312 -20.734375 14.890625 -20.4375 16.203125 -19.84375 C 17.515625 -19.257812 18.632812 -18.425781 19.5625 -17.34375 C 20.488281 -16.257812 21.144531 -14.976562 21.53125 -13.5 L 18.9375 -13.5 C 18.382812 -14.976562 17.484375 -16.132812 16.234375 -16.96875 C 14.992188 -17.8125 13.539062 -18.234375 11.875 -18.234375 C 10.351562 -18.234375 9 -17.890625 7.8125 -17.203125 C 6.625 -16.523438 5.695312 -15.578125 5.03125 -14.359375 C 4.363281 -13.148438 4.03125 -11.765625 4.03125 -10.203125 C 4.03125 -8.628906 4.363281 -7.238281 5.03125 -6.03125 C 5.695312 -4.832031 6.625 -3.890625 7.8125 -3.203125 C 9 -2.523438 10.351562 -2.1875 11.875 -2.1875 C 13.582031 -2.1875 15.066406 -2.628906 16.328125 -3.515625 C 17.597656 -4.398438 18.492188 -5.628906 19.015625 -7.203125 L 21.640625 -7.203125 C 21.253906 -5.671875 20.59375 -4.335938 19.65625 -3.203125 C 18.726562 -2.078125 17.597656 -1.207031 16.265625 -0.59375 C 14.929688 0.0195312 13.46875 0.328125 11.875 0.328125 Z M 11.875 0.328125 "/></g></g></g><g fill="#e77813" fill-opacity="1"><g transform="translate(70.331763, 22.247874)"><g><path d="M 15.921875 -20.421875 L 18.46875 -20.421875 L 18.46875 0 L 15.921875 0 L 15.921875 -9.28125 L 5.34375 -9.28125 L 5.34375 0 L 2.796875 0 L 2.796875 -20.421875 L 5.34375 -20.421875 L 5.34375 -11.734375 L 15.921875 -11.734375 Z M 15.921875 -20.421875 "/></g></g></g><g fill="#e77813" fill-opacity="1"><g transform="translate(106.177786, 22.247874)"><g><path d="M 12.078125 0.34375 C 10.535156 0.34375 9.113281 0.078125 7.8125 -0.453125 C 6.507812 -0.984375 5.375 -1.722656 4.40625 -2.671875 C 3.445312 -3.628906 2.707031 -4.742188 2.1875 -6.015625 C 1.664062 -7.296875 1.40625 -8.691406 1.40625 -10.203125 C 1.40625 -11.703125 1.664062 -13.09375 2.1875 -14.375 C 2.707031 -15.664062 3.445312 -16.785156 4.40625 -17.734375 C 5.375 -18.691406 6.507812 -19.4375 7.8125 -19.96875 C 9.113281 -20.5 10.535156 -20.765625 12.078125 -20.765625 C 13.628906 -20.765625 15.054688 -20.5 16.359375 -19.96875 C 17.660156 -19.4375 18.785156 -18.691406 19.734375 -17.734375 C 20.691406 -16.785156 21.4375 -15.671875 21.96875 -14.390625 C 22.507812 -13.117188 22.78125 -11.722656 22.78125 -10.203125 C 22.78125 -8.691406 22.507812 -7.289062 21.96875 -6 C 21.4375 -4.71875 20.691406 -3.601562 19.734375 -2.65625 C 18.785156 -1.71875 17.660156 -0.984375 16.359375 -0.453125 C 15.054688 0.078125 13.628906 0.34375 12.078125 0.34375 Z M 12.078125 -2.15625 C 13.628906 -2.15625 15.015625 -2.503906 16.234375 -3.203125 C 17.453125 -3.910156 18.410156 -4.867188 19.109375 -6.078125 C 19.804688 -7.296875 20.15625 -8.671875 20.15625 -10.203125 C 20.15625 -11.742188 19.804688 -13.117188 19.109375 -14.328125 C 18.410156 -15.546875 17.453125 -16.503906 16.234375 -17.203125 C 15.015625 -17.910156 13.628906 -18.265625 12.078125 -18.265625 C 10.535156 -18.265625 9.15625 -17.90625 7.9375 -17.1875 C 6.726562 -16.476562 5.773438 -15.515625 5.078125 -14.296875 C 4.378906 -13.085938 4.03125 -11.722656 4.03125 -10.203125 C 4.03125 -8.671875 4.378906 -7.300781 5.078125 -6.09375 C 5.773438 -4.882812 6.726562 -3.925781 7.9375 -3.21875 C 9.15625 -2.507812 10.535156 -2.15625 12.078125 -2.15625 Z M 12.078125 -2.15625 "/></g></g></g><g fill="#e77813" fill-opacity="1"><g transform="translate(144.939046, 22.247874)"><g><path d="M 12.078125 0.34375 C 10.535156 0.34375 9.113281 0.078125 7.8125 -0.453125 C 6.507812 -0.984375 5.375 -1.722656 4.40625 -2.671875 C 3.445312 -3.628906 2.707031 -4.742188 2.1875 -6.015625 C 1.664062 -7.296875 1.40625 -8.691406 1.40625 -10.203125 C 1.40625 -11.703125 1.664062 -13.09375 2.1875 -14.375 C 2.707031 -15.664062 3.445312 -16.785156 4.40625 -17.734375 C 5.375 -18.691406 6.507812 -19.4375 7.8125 -19.96875 C 9.113281 -20.5 10.535156 -20.765625 12.078125 -20.765625 C 13.628906 -20.765625 15.054688 -20.5 16.359375 -19.96875 C 17.660156 -19.4375 18.785156 -18.691406 19.734375 -17.734375 C 20.691406 -16.785156 21.4375 -15.671875 21.96875 -14.390625 C 22.507812 -13.117188 22.78125 -11.722656 22.78125 -10.203125 C 22.78125 -8.691406 22.507812 -7.289062 21.96875 -6 C 21.4375 -4.71875 20.691406 -3.601562 19.734375 -2.65625 C 18.785156 -1.71875 17.660156 -0.984375 16.359375 -0.453125 C 15.054688 0.078125 13.628906 0.34375 12.078125 0.34375 Z M 12.078125 -2.15625 C 13.628906 -2.15625 15.015625 -2.503906 16.234375 -3.203125 C 17.453125 -3.910156 18.410156 -4.867188 19.109375 -6.078125 C 19.804688 -7.296875 20.15625 -8.671875 20.15625 -10.203125 C 20.15625 -11.742188 19.804688 -13.117188 19.109375 -14.328125 C 18.410156 -15.546875 17.453125 -16.503906 16.234375 -17.203125 C 15.015625 -17.910156 13.628906 -18.265625 12.078125 -18.265625 C 10.535156 -18.265625 9.15625 -17.90625 7.9375 -17.1875 C 6.726562 -16.476562 5.773438 -15.515625 5.078125 -14.296875 C 4.378906 -13.085938 4.03125 -11.722656 4.03125 -10.203125 C 4.03125 -8.671875 4.378906 -7.300781 5.078125 -6.09375 C 5.773438 -4.882812 6.726562 -3.925781 7.9375 -3.21875 C 9.15625 -2.507812 10.535156 -2.15625 12.078125 -2.15625 Z M 12.078125 -2.15625 "/></g></g></g><g fill="#e77813" fill-opacity="1"><g transform="translate(183.700307, 22.247874)"><g><path d="M 5.34375 -2.390625 L 14.328125 -2.390625 L 14.328125 0 L 2.796875 0 L 2.796875 -20.421875 L 5.34375 -20.421875 Z M 5.34375 -2.390625 "/></g></g></g></g></g></svg>